<svg version="1.0" width="100%" height="100%" viewBox="83.897 99.454 173.416 52.139" preserveAspectRatio="xMidYMid meet" color-interpolation-filters="sRGB" style="margin: auto;" xmlns="http://www.w3.org/2000/svg">
    <defs></defs>
    <rect x="83.372" y="99.919" width="173.407" height="51.083" fill="#140d0d" fill-opacity="0" class="background" style=""></rect>
    <g fill="#ec7210" class="iconlinesvg-g iconlinesvg" transform="translate(89.50138092041016,106.33794975280762)">
        <g transform="matrix(1,0,0,1,0,0)" opacity="1" class="logo-name">
            <g transform="translate(0, 0)">
                <g>
                    <g class="imagesvg">
                        <g>
                            <rect fill="#ec7210" fill-opacity="0" stroke-width="2" x="0" y="0" width="19.161872793014492" height="23.16810077986953" class="image-rect"></rect>
                            <svg x="0" y="0" width="19.161872793014492" height="23.16810077986953" class="image-svg-svg primary" style="overflow: visible;">
                                <svg xmlns="http://www.w3.org/2000/svg" viewBox="0.0021750926971435547 0 82.70782470703125 100">
                                    <title>资源 33</title>
                                    <path d="M.16 0h50S67.27 1 71 13.76s-4.4 20.13-4.4 20.13H54.52S60.23.67 31 7.05v33.22S16.27 44 3.51 58.05c0 0 .68-4.69 9.74-12.08V9.4s-.68-5-4.37-5.71H1.17S-.51 3 .16 0z" fill="#ec7210"></path>
                                    <path d="M13.58 55.7V93s5.71-42.95 49-55.7c-.01-.05-30.88-1.06-49 18.4z" fill="#f0c244"></path>
                                    <path d="M31.7 63.42S20 76.51 21 100h33.52s33.56-4.36 24.83-36.58C74 46.31 57.54 44.63 57.54 44.63a53.79 53.79 0 0 1 25.17-8.39s-26.18-1-38.59 13.09c0 0 16.78 3.69 18.45 24.83S46.8 94.3 45.46 94.3s-12.08.33-13.76-7.39z" fill="#ec7210"></path>
                                </svg>
                            </svg>
                        </g>
                    </g>
                </g>
            </g>
            <g transform="translate(24, 0.5478724039862861)">
                <g fill="#ec7210" transform="scale(1)">
                    <path d="M4.49-7.02C4.49-4.86 4.52-2.50 4.37-1.47C4.29-0.78 4.12-0.46 3.63-0.37C3.40-0.32 3.19-0.32 2.99-0.32C2.82-0.32 2.65-0.23 2.65-0.14C2.65 0.03 2.76 0.09 3.05 0.09C3.83 0.09 5.09 0 5.55 0C5.67 0 7.28 0.09 8.78 0.09C9.06 0.09 9.18 0 9.18-0.14C9.18-0.23 9.06-0.32 8.81-0.32C8.58-0.32 8.26-0.35 7.97-0.37C7.02-0.49 6.94-1.06 6.85-1.76C6.71-2.79 6.71-4.89 6.71-7.19L6.71-7.60C6.71-7.71 6.73-7.74 6.85-7.74L9.81-7.71C9.99-7.71 10.04-7.65 10.16-7.54C10.65-6.94 11.80-5.38 12.92-4.00C14.42-2.07 15.28-0.78 16.49-0.26C17.12 0 17.76 0.09 19.11 0.09L21.12 0.09C21.53 0.09 21.64 0.03 21.64-0.12C21.64-0.23 21.55-0.32 21.32-0.32C21.24-0.32 20.63-0.35 20.43-0.37C19.63-0.49 18.76-0.72 17.38-2.13C15.91-3.65 14.19-5.78 12.09-8.37C14.36-10.22 15.14-12.23 15.14-13.81C15.14-15.77 13.96-16.92 13.41-17.32C12.06-18.27 10.30-18.42 8.69-18.42C7.89-18.42 5.93-18.33 5.67-18.33C5.61-18.33 3.86-18.42 2.62-18.42C2.36-18.42 2.27-18.33 2.27-18.22C2.27-18.10 2.39-18.04 2.59-18.04C2.82-18.04 3.11-18.01 3.28-17.99C4.17-17.81 4.37-17.38 4.43-16.60C4.49-15.83 4.49-15.14 4.49-11.34ZM6.71-17.12C6.71-17.27 6.79-17.35 6.88-17.38C7.22-17.47 7.83-17.53 8.55-17.53C11.11-17.53 12.78-15.80 12.78-12.66C12.78-10.82 12.20-9.55 11.34-9.01C10.73-8.60 10.01-8.58 9.41-8.58C8.37-8.58 7.22-8.75 6.85-8.95C6.73-9.01 6.71-9.15 6.71-9.30Z" transform="translate(-2.273423887587822, 21.669470725995318)"></path>
                </g>
            </g>
            <g transform="matrix(1, 0, 0, 1, 44, 0.547873)">
                <g fill="#ec7210" transform="scale(1)">
                    <path d="M5.38-11.34C5.38-15.14 5.38-15.80 5.41-16.58C5.47-17.38 5.58-17.87 6.27-17.96C6.50-17.99 6.73-18.01 6.91-18.01C7.05-18.01 7.25-18.07 7.25-18.22C7.25-18.36 7.17-18.42 6.85-18.42C6.07-18.42 4.37-18.33 4.14-18.33C3.94-18.33 2.39-18.42 1.15-18.42C0.83-18.42 0.72-18.36 0.72-18.19C0.72-18.10 0.83-18.01 1.04-18.01C1.27-18.01 1.61-17.99 1.78-17.96C2.68-17.84 2.82-17.35 2.85-16.58C2.94-15.80 2.94-15.14 2.94-11.34L2.94-7.77C2.94-4.20 3.83-2.47 5.06-1.32C6.94 0.40 9.64 0.40 10.45 0.40C12.00 0.40 13.84 0.26 15.71-1.32C17.76-3.08 18.04-6.19 18.04-8.78L18.04-11.34C18.04-15.11 18.04-15.77 18.07-16.55C18.13-17.38 18.24-17.90 19.05-17.99C19.34-18.01 19.40-18.01 19.57-18.01C19.74-18.01 19.86-18.10 19.86-18.22C19.86-18.36 19.74-18.42 19.45-18.42C18.65-18.42 17.41-18.33 17.27-18.33C17.15-18.33 15.71-18.42 14.48-18.42C14.22-18.42 14.07-18.36 14.07-18.19C14.07-18.10 14.19-18.01 14.36-18.01C14.62-18.01 14.96-17.99 15.17-17.96C16.09-17.81 16.17-17.38 16.23-16.55C16.29-15.77 16.29-15.11 16.29-11.34L16.29-8.29C16.29-5.78 16.03-3.60 14.88-2.27C13.78-1.01 12.43-0.60 10.94-0.60C9.76-0.60 8.37-0.83 7.14-1.93C6.04-2.91 5.38-4.40 5.38-7.91Z" transform="translate(-0.7194379391100703, 21.669470725995318)"></path>
                </g>
            </g>
            <g transform="matrix(1, 0, 0, 1, 67, 0.547873)">
                <g fill="#ec7210" transform="scale(1)">
                    <path d="M4.49-7.02C4.49-4.86 4.52-2.50 4.37-1.47C4.29-0.78 4.12-0.46 3.63-0.37C3.40-0.32 3.19-0.32 2.99-0.32C2.82-0.32 2.65-0.23 2.65-0.14C2.65 0.03 2.76 0.09 3.05 0.09C3.83 0.09 5.09 0 5.55 0C5.67 0 7.28 0.09 8.78 0.09C9.06 0.09 9.18 0 9.18-0.14C9.18-0.23 9.06-0.32 8.81-0.32C8.58-0.32 8.26-0.35 7.97-0.37C7.02-0.49 6.94-1.06 6.85-1.76C6.71-2.79 6.71-4.89 6.71-7.19L6.71-7.60C6.71-7.71 6.73-7.74 6.85-7.74L9.81-7.71C9.99-7.71 10.04-7.65 10.16-7.54C10.65-6.94 11.80-5.38 12.92-4.00C14.42-2.07 15.28-0.78 16.49-0.26C17.12 0 17.76 0.09 19.11 0.09L21.12 0.09C21.53 0.09 21.64 0.03 21.64-0.12C21.64-0.23 21.55-0.32 21.32-0.32C21.24-0.32 20.63-0.35 20.43-0.37C19.63-0.49 18.76-0.72 17.38-2.13C15.91-3.65 14.19-5.78 12.09-8.37C14.36-10.22 15.14-12.23 15.14-13.81C15.14-15.77 13.96-16.92 13.41-17.32C12.06-18.27 10.30-18.42 8.69-18.42C7.89-18.42 5.93-18.33 5.67-18.33C5.61-18.33 3.86-18.42 2.62-18.42C2.36-18.42 2.27-18.33 2.27-18.22C2.27-18.10 2.39-18.04 2.59-18.04C2.82-18.04 3.11-18.01 3.28-17.99C4.17-17.81 4.37-17.38 4.43-16.60C4.49-15.83 4.49-15.14 4.49-11.34ZM6.71-17.12C6.71-17.27 6.79-17.35 6.88-17.38C7.22-17.47 7.83-17.53 8.55-17.53C11.11-17.53 12.78-15.80 12.78-12.66C12.78-10.82 12.20-9.55 11.34-9.01C10.73-8.60 10.01-8.58 9.41-8.58C8.37-8.58 7.22-8.75 6.85-8.95C6.73-9.01 6.71-9.15 6.71-9.30Z" transform="translate(-2.273423887587822, 21.669470725995318)"></path>
                </g>
            </g>
            <g transform="matrix(1, 0, 0, 1, 88, 0.547873)">
                <g fill="#ec7210" transform="scale(1)">
                    <path d="M4.46-7.02C4.46-4.78 4.46-2.82 4.32-1.76C4.23-1.06 4.06-0.46 3.57-0.37C3.34-0.32 3.25-0.32 3.05-0.32C2.68-0.32 2.65-0.17 2.65-0.09C2.65 0.03 2.79 0.09 3.05 0.09C4.00 0.09 4.75 0 5.64 0C5.76 0 6.45 0.03 7.25 0.09C8.00 0.09 8.58 0.14 9.04 0.14C13.41 0.14 15.57-2.53 15.57-5.21C15.57-8.03 13.09-9.78 11.17-10.36C12.37-11.31 13.58-12.66 13.58-14.79C13.58-16.03 12.72-18.42 8.40-18.42C7.28-18.42 6.33-18.33 5.64-18.33C5.58-18.33 3.86-18.42 2.65-18.42C2.39-18.42 2.22-18.36 2.22-18.22C2.22-18.10 2.33-18.01 2.59-18.01C2.65-18.01 3.05-17.99 3.28-17.96C4.14-17.78 4.35-17.38 4.40-16.60C4.46-15.83 4.46-15.11 4.46-11.34ZM6.71-17.24C6.71-17.38 6.79-17.44 7.05-17.50C7.31-17.58 7.91-17.64 8.14-17.64C10.59-17.64 11.48-15.42 11.48-13.44C11.48-12.49 11.19-11.68 10.73-11.14C10.19-10.53 9.76-10.45 8.29-10.45C7.34-10.45 7.02-10.50 6.85-10.53C6.76-10.59 6.71-10.62 6.71-10.82ZM6.71-9.47C6.71-9.61 6.76-9.64 6.85-9.64C7.25-9.70 8.26-9.70 8.75-9.64C9.32-9.58 9.84-9.53 10.71-9.01C12.66-7.68 13.18-5.47 13.18-4.00C13.18-1.35 11.02-0.75 9.78-0.75C9.50-0.75 8.35-0.78 7.65-1.12C6.79-1.50 6.82-1.87 6.73-3.14C6.71-3.37 6.71-6.53 6.71-8.35Z" transform="translate(-2.2158688524590167, 21.669470725995318)"></path>
                </g>
            </g>
            <g transform="matrix(1, 0, 0, 1, 105, 0.547873)">
                <g fill="#ec7210" transform="scale(1)">
                    <path d="M4.46-7.02C4.46-4.83 4.43-3.65 4.40-2.68C4.35-0.89 4.00-0.52 3.48-0.40C3.28-0.35 3.08-0.32 2.91-0.32C2.76-0.32 2.65-0.23 2.65-0.12C2.65 0.03 2.79 0.09 3.05 0.09C3.74 0.09 4.29 0 4.95 0C6.01 0 7.34 0.06 8.35 0.09C9.35 0.09 10.16 0.14 12.06 0.14C13.01 0.14 13.21 0.09 13.32-0.49C13.41-0.98 13.64-2.79 13.64-2.99C13.64-3.17 13.64-3.42 13.47-3.42C13.35-3.42 13.27-3.31 13.21-3.02C12.98-1.96 12.78-1.38 11.91-1.12C11.19-0.92 10.27-0.95 9.73-0.95C8.75-0.95 8.06-1.01 7.63-1.21C7.02-1.47 6.88-2.01 6.82-3.08C6.79-3.57 6.82-6.10 6.82-6.99L6.82-9.09C6.82-9.21 6.85-9.30 7.02-9.30C7.48-9.30 9.81-9.24 10.48-9.18C11.57-9.09 11.74-8.69 11.86-8.32C11.91-8.09 11.94-7.80 11.94-7.63C11.94-7.42 11.97-7.25 12.12-7.25C12.23-7.25 12.29-7.34 12.32-7.57C12.35-7.94 12.35-8.52 12.43-9.32C12.52-10.16 12.63-10.71 12.63-10.85C12.63-10.99 12.58-11.02 12.52-11.02C12.40-11.02 12.32-10.96 12.20-10.79C11.97-10.48 11.54-10.39 10.88-10.36C10.27-10.30 7.34-10.27 6.99-10.27C6.85-10.27 6.82-10.39 6.82-10.56L6.82-17.09C6.82-17.27 6.88-17.32 6.96-17.32C7.02-17.32 9.87-17.30 10.24-17.27C11.68-17.18 11.94-16.98 12.12-16.40C12.20-16.20 12.29-15.91 12.32-15.48C12.32-15.28 12.37-15.17 12.52-15.17C12.66-15.17 12.72-15.34 12.72-15.60C12.75-16.14 12.78-16.60 12.81-17.09C12.86-17.81 13.04-18.22 13.04-18.39C13.04-18.53 12.98-18.59 12.92-18.59C12.81-18.59 12.78-18.56 12.60-18.50C12.37-18.42 12.06-18.39 11.48-18.36C10.91-18.33 5.78-18.33 5.64-18.33C4.03-18.36 3.25-18.42 2.68-18.42C2.39-18.42 2.24-18.36 2.24-18.19C2.24-18.10 2.42-18.01 2.62-18.01C2.85-18.01 3.14-17.99 3.31-17.96C4.14-17.78 4.35-17.38 4.40-16.58C4.46-15.80 4.46-15.11 4.46-11.34Z" transform="translate(-2.244646370023419, 21.669470725995318)"></path>
                </g>
            </g>
            <g transform="matrix(1, 0, 0, 1, 121, 0.547873)">
                <g fill="#ec7210" transform="scale(1)">
                    <path d="M4.49-7.02C4.49-4.86 4.52-2.50 4.37-1.47C4.29-0.78 4.12-0.46 3.63-0.37C3.40-0.32 3.19-0.32 2.99-0.32C2.82-0.32 2.65-0.23 2.65-0.14C2.65 0.03 2.76 0.09 3.05 0.09C3.83 0.09 5.09 0 5.55 0C5.67 0 7.28 0.09 8.78 0.09C9.06 0.09 9.18 0 9.18-0.14C9.18-0.23 9.06-0.32 8.81-0.32C8.58-0.32 8.26-0.35 7.97-0.37C7.02-0.49 6.94-1.06 6.85-1.76C6.71-2.79 6.71-4.89 6.71-7.19L6.71-7.60C6.71-7.71 6.73-7.74 6.85-7.74L9.81-7.71C9.99-7.71 10.04-7.65 10.16-7.54C10.65-6.94 11.80-5.38 12.92-4.00C14.42-2.07 15.28-0.78 16.49-0.26C17.12 0 17.76 0.09 19.11 0.09L21.12 0.09C21.53 0.09 21.64 0.03 21.64-0.12C21.64-0.23 21.55-0.32 21.32-0.32C21.24-0.32 20.63-0.35 20.43-0.37C19.63-0.49 18.76-0.72 17.38-2.13C15.91-3.65 14.19-5.78 12.09-8.37C14.36-10.22 15.14-12.23 15.14-13.81C15.14-15.77 13.96-16.92 13.41-17.32C12.06-18.27 10.30-18.42 8.69-18.42C7.89-18.42 5.93-18.33 5.67-18.33C5.61-18.33 3.86-18.42 2.62-18.42C2.36-18.42 2.27-18.33 2.27-18.22C2.27-18.10 2.39-18.04 2.59-18.04C2.82-18.04 3.11-18.01 3.28-17.99C4.17-17.81 4.37-17.38 4.43-16.60C4.49-15.83 4.49-15.14 4.49-11.34ZM6.71-17.12C6.71-17.27 6.79-17.35 6.88-17.38C7.22-17.47 7.83-17.53 8.55-17.53C11.11-17.53 12.78-15.80 12.78-12.66C12.78-10.82 12.20-9.55 11.34-9.01C10.73-8.60 10.01-8.58 9.41-8.58C8.37-8.58 7.22-8.75 6.85-8.95C6.73-9.01 6.71-9.15 6.71-9.30Z" transform="translate(-2.273423887587822, 21.669470725995318)"></path>
                </g>
            </g>
            <g transform="translate(142, 0.5478724039862861)">
                <g fill="#ec7210" transform="scale(1)">
                    <path d="M18.76-4.63C18.76-5.67 18.76-6.39 18.82-7.22C18.88-8.06 19.05-8.58 19.74-8.66C19.97-8.69 20.03-8.69 20.23-8.69C20.49-8.69 20.58-8.81 20.58-8.89C20.58-9.04 20.46-9.09 20.17-9.09C19.40-9.09 17.70-9.04 17.58-9.04C17.47-9.04 15.80-9.09 14.65-9.09C14.33-9.09 14.22-9.04 14.22-8.89C14.22-8.81 14.33-8.69 14.56-8.69C14.79-8.69 15.08-8.66 15.25-8.63C16.26-8.49 16.40-8.12 16.40-6.22L16.40-2.07C16.40-1.67 16.20-1.38 15.91-1.21C15.25-0.86 13.99-0.72 13.18-0.72C10.68-0.72 8.55-1.55 6.65-3.40C5.90-4.12 4.03-6.65 4.03-10.07C4.03-12.92 4.98-15.11 6.45-16.23C8.37-17.70 10.19-17.76 11.74-17.76C14.96-17.76 17.04-16.69 17.70-15.74C18.13-15.11 18.24-14.22 18.24-13.96C18.27-13.78 18.30-13.61 18.45-13.61C18.65-13.61 18.68-13.73 18.68-14.13C18.68-16.66 18.88-17.53 18.88-17.87C18.88-17.99 18.88-18.10 18.65-18.10C18.04-18.13 16.92-18.27 16.46-18.36C15.42-18.53 14.19-18.76 12.35-18.76C10.59-18.76 8.14-18.59 5.93-17.30C3.57-15.89 1.58-13.09 1.58-9.18C1.58-5.90 3.14-3.48 4.69-2.19C7.63 0.26 11.25 0.40 13.12 0.40C14.53 0.40 16.83 0.12 18.42-0.69C18.73-0.86 18.76-0.89 18.76-2.04Z" transform="translate(-1.5827634660421543, 21.669470725995318)"></path>
                </g>
            </g>
        </g>
        <g class="logo-slogan" fill="#ec7210" transform="matrix(1,0,0,1,5,29.168100357055664)" opacity="1">
            <rect x="0" height="1" y="3.580000400543213" width="16.693618774414062"></rect>
            <rect height="1" y="3.580000400543213" width="16.693618774414062" x="134.30361938476562"></rect>
            <g transform="translate(19.693618774414062,0)">
                <g transform="scale(1)">
                    <path d="M1.08 0L1.08-7.87L5.62-7.87L5.62-7.03L2.08-7.03L2.08-4.56L5.06-4.56L5.06-3.71L2.08-3.71L2.08-0.85L5.74-0.85L5.74 0L1.08 0ZM6.50 0L8.80-4.07L6.66-7.87L7.76-7.87L8.83-5.86Q8.99-5.58 9.13-5.32Q9.26-5.06 9.44-4.72L9.44-4.72L9.49-4.72Q9.66-5.06 9.79-5.32Q9.91-5.58 10.06-5.86L10.06-5.86L11.10-7.87L12.16-7.87L10.01-4.02L12.30 0L11.20 0L10.04-2.12Q9.89-2.41 9.73-2.72Q9.56-3.02 9.37-3.38L9.37-3.38L9.32-3.38Q9.16-3.02 9-2.72Q8.84-2.41 8.70-2.12L8.70-2.12L7.56 0L6.50 0ZM13.56 0L13.56-7.87L15.97-7.87Q16.62-7.87 17.16-7.75Q17.70-7.63 18.08-7.36Q18.46-7.09 18.67-6.65Q18.88-6.20 18.88-5.56L18.88-5.56Q18.88-4.93 18.67-4.48Q18.46-4.02 18.07-3.72Q17.69-3.42 17.15-3.27Q16.62-3.12 15.97-3.12L15.97-3.12L14.56-3.12L14.56 0L13.56 0ZM14.56-3.94L15.85-3.94Q16.88-3.94 17.38-4.33Q17.88-4.72 17.88-5.56L17.88-5.56Q17.88-6.41 17.38-6.74Q16.87-7.07 15.85-7.07L15.85-7.07L14.56-7.07L14.56-3.94ZM20.86-3.20L23.22-3.20L22.85-4.40Q22.63-5.06 22.44-5.72Q22.25-6.37 22.06-7.06L22.06-7.06L22.01-7.06Q21.83-6.37 21.64-5.72Q21.44-5.06 21.23-4.40L21.23-4.40L20.86-3.20ZM24.22 0L23.47-2.40L20.60-2.40L19.85 0L18.83 0L21.49-7.87L22.62-7.87L25.28 0L24.22 0ZM26.40 0L26.40-7.87L27.43-7.87L30.28-2.93L31.13-1.30L31.18-1.30Q31.14-1.90 31.10-2.54Q31.06-3.18 31.06-3.80L31.06-3.80L31.06-7.87L32.00-7.87L32.00 0L30.97 0L28.12-4.96L27.26-6.58L27.22-6.58Q27.26-5.98 27.31-5.36Q27.35-4.74 27.35-4.12L27.35-4.12L27.35 0L26.40 0ZM34.16 0L34.16-7.87L36.13-7.87Q37.96-7.87 38.90-6.86Q39.85-5.86 39.85-3.97L39.85-3.97Q39.85-3.04 39.61-2.30Q39.37-1.56 38.90-1.05Q38.44-0.54 37.75-0.27Q37.07 0 36.18 0L36.18 0L34.16 0ZM35.16-0.82L36.06-0.82Q37.44-0.82 38.13-1.64Q38.82-2.47 38.82-3.97L38.82-3.97Q38.82-5.47 38.13-6.26Q37.44-7.06 36.06-7.06L36.06-7.06L35.16-7.06L35.16-0.82ZM45.60 0L45.60-7.03L43.22-7.03L43.22-7.87L48.98-7.87L48.98-7.03L46.61-7.03L46.61 0L45.60 0ZM50.40 0L50.40-7.87L51.40-7.87L51.40-4.57L55.06-4.57L55.06-7.87L56.06-7.87L56.06 0L55.06 0L55.06-3.71L51.40-3.71L51.40 0L50.40 0ZM58.22 0L58.22-7.87L62.76-7.87L62.76-7.03L59.22-7.03L59.22-4.56L62.21-4.56L62.21-3.71L59.22-3.71L59.22-0.85L62.88-0.85L62.88 0L58.22 0ZM66.97 0L66.97-7.87L67.97-7.87L67.97-4.57L71.63-4.57L71.63-7.87L72.64-7.87L72.64 0L71.63 0L71.63-3.71L67.97-3.71L67.97 0L66.97 0ZM77.70 0.14L77.70 0.14Q76.96 0.14 76.34-0.14Q75.72-0.43 75.28-0.97Q74.83-1.50 74.59-2.26Q74.34-3.02 74.34-3.97L74.34-3.97Q74.34-4.92 74.59-5.67Q74.83-6.42 75.28-6.94Q75.72-7.46 76.34-7.74Q76.96-8.02 77.70-8.02L77.70-8.02Q78.44-8.02 79.06-7.73Q79.68-7.45 80.13-6.93Q80.58-6.41 80.83-5.66Q81.07-4.91 81.07-3.97L81.07-3.97Q81.07-3.02 80.83-2.26Q80.58-1.50 80.13-0.97Q79.68-0.43 79.06-0.14Q78.44 0.14 77.70 0.14ZM77.70-0.73L77.70-0.73Q78.23-0.73 78.65-0.96Q79.08-1.19 79.39-1.61Q79.69-2.04 79.86-2.63Q80.03-3.23 80.03-3.97L80.03-3.97Q80.03-4.70 79.86-5.29Q79.69-5.88 79.39-6.29Q79.08-6.70 78.65-6.92Q78.23-7.14 77.70-7.14L77.70-7.14Q77.17-7.14 76.75-6.92Q76.32-6.70 76.01-6.29Q75.71-5.88 75.54-5.29Q75.37-4.70 75.37-3.97L75.37-3.97Q75.37-3.23 75.54-2.63Q75.71-2.04 76.01-1.61Q76.32-1.19 76.75-0.96Q77.17-0.73 77.70-0.73ZM83.76-7.07L83.76-4.14L85.08-4.14Q86.00-4.14 86.50-4.52Q86.99-4.90 86.99-5.66L86.99-5.66Q86.99-6.44 86.50-6.76Q86.00-7.07 85.08-7.07L85.08-7.07L83.76-7.07ZM88.21 0L87.08 0L85.19-3.32L83.76-3.32L83.76 0L82.76 0L82.76-7.87L85.22-7.87Q85.82-7.87 86.33-7.76Q86.84-7.64 87.21-7.38Q87.58-7.12 87.78-6.70Q87.98-6.28 87.98-5.66L87.98-5.66Q87.98-4.74 87.50-4.19Q87.02-3.64 86.22-3.43L86.22-3.43L88.21 0ZM89.74 0L89.74-7.87L90.73-7.87L90.73 0L89.74 0ZM92.35 0L92.35-0.60L96.49-7.03L92.72-7.03L92.72-7.87L97.74-7.87L97.74-7.28L93.59-0.85L97.78-0.85L97.78 0L92.35 0ZM102.02 0.14L102.02 0.14Q101.28 0.14 100.66-0.14Q100.04-0.43 99.60-0.97Q99.16-1.50 98.91-2.26Q98.66-3.02 98.66-3.97L98.66-3.97Q98.66-4.92 98.91-5.67Q99.16-6.42 99.60-6.94Q100.04-7.46 100.66-7.74Q101.28-8.02 102.02-8.02L102.02-8.02Q102.77-8.02 103.39-7.73Q104.00-7.45 104.45-6.93Q104.90-6.41 105.15-5.66Q105.40-4.91 105.40-3.97L105.40-3.97Q105.40-3.02 105.15-2.26Q104.90-1.50 104.45-0.97Q104.00-0.43 103.39-0.14Q102.77 0.14 102.02 0.14ZM102.02-0.73L102.02-0.73Q102.55-0.73 102.98-0.96Q103.40-1.19 103.71-1.61Q104.02-2.04 104.18-2.63Q104.35-3.23 104.35-3.97L104.35-3.97Q104.35-4.70 104.18-5.29Q104.02-5.88 103.71-6.29Q103.40-6.70 102.98-6.92Q102.55-7.14 102.02-7.14L102.02-7.14Q101.50-7.14 101.07-6.92Q100.64-6.70 100.34-6.29Q100.03-5.88 99.86-5.29Q99.70-4.70 99.70-3.97L99.70-3.97Q99.70-3.23 99.86-2.63Q100.03-2.04 100.34-1.61Q100.64-1.19 101.07-0.96Q101.50-0.73 102.02-0.73ZM107.09 0L107.09-7.87L108.12-7.87L110.96-2.93L111.82-1.30L111.86-1.30Q111.83-1.90 111.79-2.54Q111.74-3.18 111.74-3.80L111.74-3.80L111.74-7.87L112.69-7.87L112.69 0L111.66 0L108.80-4.96L107.95-6.58L107.90-6.58Q107.95-5.98 107.99-5.36Q108.04-4.74 108.04-4.12L108.04-4.12L108.04 0L107.09 0Z" transform="translate(-1.08, 8.016)"></path>
                </g>
            </g>
        </g>
    </g>
</svg>