<svg version="1.0" width="100%" height="100%" color-interpolation-filters="sRGB" style="margin: auto;" viewBox="0 0 131.059 155.852" xmlns="http://www.w3.org/2000/svg">
    <defs></defs>
    <rect x="0.424" y="0.281" width="130.087" height="155.16" fill="#140d0d" fill-opacity="0" class="background" style=""></rect>
    <g class="iconmbgsvg" transform="matrix(0.565447, 0, 0, 0.659405, 22.161709, 17.811363)" style="">
        <g fill="#ec7210" >
            <g opacity="0.55" transform="matrix(1,0,0,1,0,0)">
                <g>
                    <rect fill="#ec7210" fill-opacity="0" stroke-width="2" x="0" y="0" width="150" height="181.36093243700728" class="image-rect"></rect>
                    <svg x="0" y="0" width="150" height="181.36093243700728" class="image-svg-svg primary" style="overflow: visible;">
                        <svg xmlns="http://www.w3.org/2000/svg" viewBox="0.0021750926971435547 0 82.70782470703125 100">
                            <title>资源 33</title>
                            <path d="M.16 0h50S67.27 1 71 13.76s-4.4 20.13-4.4 20.13H54.52S60.23.67 31 7.05v33.22S16.27 44 3.51 58.05c0 0 .68-4.69 9.74-12.08V9.4s-.68-5-4.37-5.71H1.17S-.51 3 .16 0z" fill="#ec7210"></path>
                            <path d="M13.58 55.7V93s5.71-42.95 49-55.7c-.01-.05-30.88-1.06-49 18.4z" fill="#f0c244"></path>
                            <path d="M31.7 63.42S20 76.51 21 100h33.52s33.56-4.36 24.83-36.58C74 46.31 57.54 44.63 57.54 44.63a53.79 53.79 0 0 1 25.17-8.39s-26.18-1-38.59 13.09c0 0 16.78 3.69 18.45 24.83S46.8 94.3 45.46 94.3s-12.08.33-13.76-7.39z" fill="#ec7210"></path>
                        </svg>
                    </svg>
                </g>
            </g>
            <g transform="translate(4.659996032714844,72.56746673583984)">
                <g class="logo-name" transform="matrix(1,0,0,1,0,0)" opacity="1">
                    <g transform="scale(1)">
                        <g>
                            <path d="M5.12-8.26C5.12-5.5 5.12-3.22 4.98-2.01 4.86-1.18 4.75-0.52 4.17-0.4 3.91-0.35 3.71-0.32 3.48-0.32 3.11-0.32 3.05-0.2 3.05-0.12 3.05 0.03 3.19 0.09 3.51 0.09 4.52 0.09 5.41 0 6.33 0 6.45 0 7.25 0.03 8.09 0.09 8.92 0.12 9.84 0.17 10.16 0.17 15.08 0.17 17.5-3.02 17.5-6.1 17.5-9.47 14.65-11.51 12.52-12.17 13.87-13.58 15.22-14.99 15.22-17.35 15.22-18.79 14.19-21.67 9.47-21.67 8.14-21.67 7.02-21.58 6.33-21.58 6.19-21.58 4.37-21.67 3.08-21.67 2.76-21.67 2.62-21.61 2.62-21.44 2.62-21.32 2.73-21.27 2.99-21.27 3.11-21.27 3.6-21.24 3.83-21.18 4.78-20.98 5.01-20.52 5.06-19.54 5.12-18.62 5.12-17.81 5.12-13.32ZM7.42-20.4C7.42-20.58 7.51-20.66 7.77-20.72 8.23-20.83 8.83-20.86 9.15-20.86 11.97-20.86 13.04-18.3 13.04-15.91 13.04-14.73 12.6-13.7 12-13.01 11.4-12.32 10.99-12.26 9.38-12.26 8.32-12.26 7.8-12.35 7.63-12.37 7.48-12.43 7.42-12.49 7.42-12.69ZM7.42-11.28C7.42-11.42 7.48-11.48 7.6-11.48 8.03-11.48 9.47-11.48 9.84-11.42 10.53-11.34 11.25-11.25 12.23-10.59 14.45-9.06 15.02-6.56 15.02-4.83 15.02-1.58 12.52-0.75 10.96-0.75 10.45-0.75 9.21-0.81 8.43-1.18 7.54-1.61 7.54-2.01 7.45-3.42 7.42-3.86 7.42-7.42 7.42-9.64ZM22.86-7.02C22.86-4.86 22.89-2.5 22.74-1.47 22.66-0.78 22.48-0.46 21.99-0.37 21.76-0.32 21.56-0.32 21.36-0.32 21.19-0.32 21.01-0.23 21.01-0.14 21.01 0.03 21.13 0.09 21.42 0.09 22.19 0.09 23.46 0 23.92 0 24.04 0 25.65 0.09 27.14 0.09 27.43 0.09 27.55 0 27.55-0.14 27.55-0.23 27.43-0.32 27.17-0.32 26.94-0.32 26.63-0.35 26.34-0.37 25.39-0.49 25.3-1.06 25.22-1.76 25.07-2.79 25.07-4.89 25.07-7.19L25.07-7.6C25.07-7.71 25.1-7.74 25.22-7.74L28.18-7.71C28.35-7.71 28.41-7.65 28.53-7.54 29.01-6.94 30.17-5.38 31.29-4 32.78-2.07 33.65-0.78 34.86-0.26 35.49 0 36.12 0.09 37.48 0.09L39.49 0.09C39.89 0.09 40.01 0.03 40.01-0.12 40.01-0.23 39.92-0.32 39.69-0.32 39.61-0.32 39-0.35 38.8-0.37 37.99-0.49 37.13-0.72 35.75-2.13 34.28-3.65 32.55-5.78 30.45-8.37 32.73-10.22 33.5-12.23 33.5-13.81 33.5-15.77 32.32-16.92 31.78-17.32 30.43-18.27 28.67-18.42 27.06-18.42 26.25-18.42 24.3-18.33 24.04-18.33 23.98-18.33 22.22-18.42 20.99-18.42 20.73-18.42 20.64-18.33 20.64-18.22 20.64-18.1 20.76-18.04 20.96-18.04 21.19-18.04 21.48-18.01 21.65-17.99 22.54-17.81 22.74-17.38 22.8-16.6 22.86-15.83 22.86-15.14 22.86-11.34ZM25.07-17.12C25.07-17.27 25.16-17.35 25.25-17.38 25.59-17.47 26.19-17.53 26.91-17.53 29.48-17.53 31.14-15.8 31.14-12.66 31.14-10.82 30.57-9.55 29.71-9.01 29.1-8.6 28.38-8.58 27.78-8.58 26.74-8.58 25.59-8.75 25.22-8.95 25.1-9.01 25.07-9.15 25.07-9.3ZM42.37-11.34C42.37-15.14 42.37-15.8 42.4-16.58 42.46-17.38 42.58-17.87 43.27-17.96 43.5-17.99 43.73-18.01 43.9-18.01 44.04-18.01 44.25-18.07 44.25-18.22 44.25-18.36 44.16-18.42 43.84-18.42 43.07-18.42 41.37-18.33 41.14-18.33 40.94-18.33 39.38-18.42 38.14-18.42 37.83-18.42 37.71-18.36 37.71-18.19 37.71-18.1 37.83-18.01 38.03-18.01 38.26-18.01 38.61-17.99 38.78-17.96 39.67-17.84 39.81-17.35 39.84-16.58 39.93-15.8 39.93-15.14 39.93-11.34L39.93-7.77C39.93-4.2 40.82-2.47 42.06-1.32 43.93 0.4 46.63 0.4 47.44 0.4 48.99 0.4 50.84 0.26 52.71-1.32 54.75-3.08 55.04-6.19 55.04-8.78L55.04-11.34C55.04-15.11 55.04-15.77 55.07-16.55 55.12-17.38 55.24-17.9 56.04-17.99 56.33-18.01 56.39-18.01 56.56-18.01 56.73-18.01 56.85-18.1 56.85-18.22 56.85-18.36 56.73-18.42 56.45-18.42 55.64-18.42 54.4-18.33 54.26-18.33 54.14-18.33 52.71-18.42 51.47-18.42 51.21-18.42 51.07-18.36 51.07-18.19 51.07-18.1 51.18-18.01 51.35-18.01 51.61-18.01 51.96-17.99 52.16-17.96 53.08-17.81 53.17-17.38 53.22-16.55 53.28-15.77 53.28-15.11 53.28-11.34L53.28-8.29C53.28-5.78 53.02-3.6 51.87-2.27 50.78-1.01 49.43-0.6 47.93-0.6 46.75-0.6 45.37-0.83 44.13-1.93 43.04-2.91 42.37-4.4 42.37-7.91ZM61.4-7.02C61.4-4.86 61.43-2.5 61.29-1.47 61.2-0.78 61.03-0.46 60.54-0.37 60.31-0.32 60.11-0.32 59.91-0.32 59.73-0.32 59.56-0.23 59.56-0.14 59.56 0.03 59.68 0.09 59.97 0.09 60.74 0.09 62.01 0 62.47 0 62.58 0 64.2 0.09 65.69 0.09 65.98 0.09 66.09 0 66.09-0.14 66.09-0.23 65.98-0.32 65.72-0.32 65.49-0.32 65.17-0.35 64.89-0.37 63.94-0.49 63.85-1.06 63.76-1.76 63.62-2.79 63.62-4.89 63.62-7.19L63.62-7.6C63.62-7.71 63.65-7.74 63.76-7.74L66.73-7.71C66.9-7.71 66.96-7.65 67.07-7.54 67.56-6.94 68.71-5.38 69.84-4 71.33-2.07 72.2-0.78 73.4-0.26 74.04 0 74.67 0.09 76.02 0.09L78.04 0.09C78.44 0.09 78.56 0.03 78.56-0.12 78.56-0.23 78.47-0.32 78.24-0.32 78.15-0.32 77.55-0.35 77.35-0.37 76.54-0.49 75.68-0.72 74.3-2.13 72.83-3.65 71.1-5.78 69-8.37 71.27-10.22 72.05-12.23 72.05-13.81 72.05-15.77 70.87-16.92 70.33-17.32 68.97-18.27 67.22-18.42 65.61-18.42 64.8-18.42 62.84-18.33 62.58-18.33 62.53-18.33 60.77-18.42 59.53-18.42 59.27-18.42 59.19-18.33 59.19-18.22 59.19-18.1 59.3-18.04 59.5-18.04 59.73-18.04 60.02-18.01 60.2-17.99 61.09-17.81 61.29-17.38 61.35-16.6 61.4-15.83 61.4-15.14 61.4-11.34ZM63.62-17.12C63.62-17.27 63.71-17.35 63.79-17.38 64.14-17.47 64.74-17.53 65.46-17.53 68.02-17.53 69.69-15.8 69.69-12.66 69.69-10.82 69.12-9.55 68.25-9.01 67.65-8.6 66.93-8.58 66.33-8.58 65.29-8.58 64.14-8.75 63.76-8.95 63.65-9.01 63.62-9.15 63.62-9.3ZM79.05-7.02C79.05-4.78 79.05-2.82 78.91-1.76 78.82-1.06 78.65-0.46 78.16-0.37 77.93-0.32 77.84-0.32 77.64-0.32 77.27-0.32 77.24-0.17 77.24-0.09 77.24 0.03 77.38 0.09 77.64 0.09 78.59 0.09 79.34 0 80.23 0 80.35 0 81.04 0.03 81.84 0.09 82.59 0.09 83.17 0.14 83.63 0.14 88 0.14 90.16-2.53 90.16-5.21 90.16-8.03 87.69-9.78 85.76-10.36 86.97-11.31 88.17-12.66 88.17-14.79 88.17-16.03 87.31-18.42 82.99-18.42 81.87-18.42 80.92-18.33 80.23-18.33 80.17-18.33 78.45-18.42 77.24-18.42 76.98-18.42 76.81-18.36 76.81-18.22 76.81-18.1 76.92-18.01 77.18-18.01 77.24-18.01 77.64-17.99 77.87-17.96 78.74-17.78 78.94-17.38 78.99-16.6 79.05-15.83 79.05-15.11 79.05-11.34ZM81.3-17.24C81.3-17.38 81.38-17.44 81.64-17.5 81.9-17.58 82.51-17.64 82.74-17.64 85.18-17.64 86.07-15.42 86.07-13.44 86.07-12.49 85.79-11.68 85.33-11.14 84.78-10.53 84.35-10.45 82.88-10.45 81.93-10.45 81.61-10.5 81.44-10.53 81.35-10.59 81.3-10.62 81.3-10.82ZM81.3-9.47C81.3-9.61 81.35-9.64 81.44-9.64 81.84-9.7 82.85-9.7 83.34-9.64 83.92-9.58 84.43-9.53 85.3-9.01 87.25-7.68 87.77-5.47 87.77-4 87.77-1.35 85.61-0.75 84.38-0.75 84.09-0.75 82.94-0.78 82.25-1.12 81.38-1.5 81.41-1.87 81.33-3.14 81.3-3.37 81.3-6.53 81.3-8.35ZM94.6-7.02C94.6-4.83 94.57-3.65 94.54-2.68 94.48-0.89 94.14-0.52 93.62-0.4 93.42-0.35 93.22-0.32 93.05-0.32 92.9-0.32 92.79-0.23 92.79-0.12 92.79 0.03 92.93 0.09 93.19 0.09 93.88 0.09 94.43 0 95.09 0 96.15 0 97.48 0.06 98.48 0.09 99.49 0.09 100.3 0.14 102.2 0.14 103.15 0.14 103.35 0.09 103.46-0.49 103.55-0.98 103.78-2.79 103.78-2.99 103.78-3.17 103.78-3.42 103.61-3.42 103.49-3.42 103.4-3.31 103.35-3.02 103.12-1.96 102.92-1.38 102.05-1.12 101.33-0.92 100.41-0.95 99.87-0.95 98.89-0.95 98.2-1.01 97.76-1.21 97.16-1.47 97.02-2.01 96.96-3.08 96.93-3.57 96.96-6.1 96.96-6.99L96.96-9.09C96.96-9.21 96.99-9.3 97.16-9.3 97.62-9.3 99.95-9.24 100.61-9.18 101.71-9.09 101.88-8.69 101.99-8.32 102.05-8.09 102.08-7.8 102.08-7.63 102.08-7.42 102.11-7.25 102.25-7.25 102.37-7.25 102.43-7.34 102.46-7.57 102.48-7.94 102.48-8.52 102.57-9.32 102.66-10.16 102.77-10.71 102.77-10.85 102.77-10.99 102.71-11.02 102.66-11.02 102.54-11.02 102.46-10.96 102.34-10.79 102.11-10.48 101.68-10.39 101.02-10.36 100.41-10.3 97.48-10.27 97.13-10.27 96.99-10.27 96.96-10.39 96.96-10.56L96.96-17.09C96.96-17.27 97.02-17.32 97.1-17.32 97.16-17.32 100.01-17.3 100.38-17.27 101.82-17.18 102.08-16.98 102.25-16.4 102.34-16.2 102.43-15.91 102.46-15.48 102.46-15.28 102.51-15.17 102.66-15.17 102.8-15.17 102.86-15.34 102.86-15.6 102.89-16.14 102.92-16.6 102.94-17.09 103-17.81 103.17-18.22 103.17-18.39 103.17-18.53 103.12-18.59 103.06-18.59 102.94-18.59 102.92-18.56 102.74-18.5 102.51-18.42 102.2-18.39 101.62-18.36 101.05-18.33 95.92-18.33 95.78-18.33 94.17-18.36 93.39-18.42 92.81-18.42 92.53-18.42 92.38-18.36 92.38-18.19 92.38-18.1 92.56-18.01 92.76-18.01 92.99-18.01 93.28-17.99 93.45-17.96 94.28-17.78 94.48-17.38 94.54-16.58 94.6-15.8 94.6-15.11 94.6-11.34ZM108.62-7.02C108.62-4.86 108.65-2.5 108.51-1.47 108.42-0.78 108.25-0.46 107.76-0.37 107.53-0.32 107.33-0.32 107.12-0.32 106.95-0.32 106.78-0.23 106.78-0.14 106.78 0.03 106.89 0.09 107.18 0.09 107.96 0.09 109.23 0 109.69 0 109.8 0 111.41 0.09 112.91 0.09 113.2 0.09 113.31 0 113.31-0.14 113.31-0.23 113.2-0.32 112.94-0.32 112.71-0.32 112.39-0.35 112.1-0.37 111.15-0.49 111.07-1.06 110.98-1.76 110.84-2.79 110.84-4.89 110.84-7.19L110.84-7.6C110.84-7.71 110.87-7.74 110.98-7.74L113.94-7.71C114.12-7.71 114.17-7.65 114.29-7.54 114.78-6.94 115.93-5.38 117.05-4 118.55-2.07 119.41-0.78 120.62-0.26 121.25 0 121.89 0.09 123.24 0.09L125.25 0.09C125.66 0.09 125.77 0.03 125.77-0.12 125.77-0.23 125.69-0.32 125.46-0.32 125.37-0.32 124.77-0.35 124.56-0.37 123.76-0.49 122.89-0.72 121.51-2.13 120.05-3.65 118.32-5.78 116.22-8.37 118.49-10.22 119.27-12.23 119.27-13.81 119.27-15.77 118.09-16.92 117.54-17.32 116.19-18.27 114.43-18.42 112.82-18.42 112.02-18.42 110.06-18.33 109.8-18.33 109.74-18.33 107.99-18.42 106.75-18.42 106.49-18.42 106.4-18.33 106.4-18.22 106.4-18.1 106.52-18.04 106.72-18.04 106.95-18.04 107.24-18.01 107.41-17.99 108.3-17.81 108.51-17.38 108.56-16.6 108.62-15.83 108.62-15.14 108.62-11.34ZM110.84-17.12C110.84-17.27 110.92-17.35 111.01-17.38 111.35-17.47 111.96-17.53 112.68-17.53 115.24-17.53 116.91-15.8 116.91-12.66 116.91-10.82 116.33-9.55 115.47-9.01 114.87-8.6 114.15-8.58 113.54-8.58 112.51-8.58 111.35-8.75 110.98-8.95 110.87-9.01 110.84-9.15 110.84-9.3ZM141.49-4.63C141.49-5.67 141.49-6.39 141.55-7.22 141.61-8.06 141.78-8.58 142.47-8.66 142.7-8.69 142.76-8.69 142.96-8.69 143.22-8.69 143.3-8.81 143.3-8.89 143.3-9.04 143.19-9.09 142.9-9.09 142.13-9.09 140.43-9.04 140.31-9.04 140.2-9.04 138.53-9.09 137.38-9.09 137.06-9.09 136.95-9.04 136.95-8.89 136.95-8.81 137.06-8.69 137.29-8.69 137.52-8.69 137.81-8.66 137.98-8.63 138.99-8.49 139.13-8.12 139.13-6.22L139.13-2.07C139.13-1.67 138.93-1.38 138.64-1.21 137.98-0.86 136.71-0.72 135.91-0.72 133.41-0.72 131.28-1.55 129.38-3.4 128.63-4.12 126.76-6.65 126.76-10.07 126.76-12.92 127.71-15.11 129.18-16.23 131.1-17.7 132.92-17.76 134.47-17.76 137.69-17.76 139.77-16.69 140.43-15.74 140.86-15.11 140.97-14.22 140.97-13.96 141-13.78 141.03-13.61 141.18-13.61 141.38-13.61 141.41-13.73 141.41-14.13 141.41-16.66 141.61-17.53 141.61-17.87 141.61-17.99 141.61-18.1 141.38-18.1 140.77-18.13 139.65-18.27 139.19-18.36 138.15-18.53 136.92-18.76 135.07-18.76 133.32-18.76 130.87-18.59 128.66-17.3 126.3-15.89 124.31-13.09 124.31-9.18 124.31-5.9 125.87-3.48 127.42-2.19 130.36 0.26 133.98 0.4 135.85 0.4 137.26 0.4 139.56 0.12 141.15-0.69 141.46-0.86 141.49-0.89 141.49-2.04Z" transform="translate(-2.619999885559082, 21.670000076293945)"></path>
                        </g>
                    </g>
                </g>
                <g class="logo-slogan" fill="#ec7210" transform="matrix(1,0,0,1,5,28.06999969482422)" opacity="1">
                    <rect x="0" height="1" y="3.580000400543213" width="6.535003662109375"></rect>
                    <rect height="1" y="3.580000400543213" width="6.535003662109375" x="124.14500427246094"></rect>
                    <g transform="translate(9.535003662109375,0)">
                        <g transform="scale(1)">
                            <path d="M1.08 0L1.08-7.87L5.62-7.87L5.62-7.03L2.08-7.03L2.08-4.56L5.06-4.56L5.06-3.71L2.08-3.71L2.08-0.85L5.74-0.85L5.74 0L1.08 0ZM6.50 0L8.80-4.07L6.66-7.87L7.76-7.87L8.83-5.86Q8.99-5.58 9.13-5.32Q9.26-5.06 9.44-4.72L9.44-4.72L9.49-4.72Q9.66-5.06 9.79-5.32Q9.91-5.58 10.06-5.86L10.06-5.86L11.10-7.87L12.16-7.87L10.01-4.02L12.30 0L11.20 0L10.04-2.12Q9.89-2.41 9.73-2.72Q9.56-3.02 9.37-3.38L9.37-3.38L9.32-3.38Q9.16-3.02 9-2.72Q8.84-2.41 8.70-2.12L8.70-2.12L7.56 0L6.50 0ZM13.56 0L13.56-7.87L15.97-7.87Q16.62-7.87 17.16-7.75Q17.70-7.63 18.08-7.36Q18.46-7.09 18.67-6.65Q18.88-6.20 18.88-5.56L18.88-5.56Q18.88-4.93 18.67-4.48Q18.46-4.02 18.07-3.72Q17.69-3.42 17.15-3.27Q16.62-3.12 15.97-3.12L15.97-3.12L14.56-3.12L14.56 0L13.56 0ZM14.56-3.94L15.85-3.94Q16.88-3.94 17.38-4.33Q17.88-4.72 17.88-5.56L17.88-5.56Q17.88-6.41 17.38-6.74Q16.87-7.07 15.85-7.07L15.85-7.07L14.56-7.07L14.56-3.94ZM20.86-3.20L23.22-3.20L22.85-4.40Q22.63-5.06 22.44-5.72Q22.25-6.37 22.06-7.06L22.06-7.06L22.01-7.06Q21.83-6.37 21.64-5.72Q21.44-5.06 21.23-4.40L21.23-4.40L20.86-3.20ZM24.22 0L23.47-2.40L20.60-2.40L19.85 0L18.83 0L21.49-7.87L22.62-7.87L25.28 0L24.22 0ZM26.40 0L26.40-7.87L27.43-7.87L30.28-2.93L31.13-1.30L31.18-1.30Q31.14-1.90 31.10-2.54Q31.06-3.18 31.06-3.80L31.06-3.80L31.06-7.87L32.00-7.87L32.00 0L30.97 0L28.12-4.96L27.26-6.58L27.22-6.58Q27.26-5.98 27.31-5.36Q27.35-4.74 27.35-4.12L27.35-4.12L27.35 0L26.40 0ZM34.16 0L34.16-7.87L36.13-7.87Q37.96-7.87 38.90-6.86Q39.85-5.86 39.85-3.97L39.85-3.97Q39.85-3.04 39.61-2.30Q39.37-1.56 38.90-1.05Q38.44-0.54 37.75-0.27Q37.07 0 36.18 0L36.18 0L34.16 0ZM35.16-0.82L36.06-0.82Q37.44-0.82 38.13-1.64Q38.82-2.47 38.82-3.97L38.82-3.97Q38.82-5.47 38.13-6.26Q37.44-7.06 36.06-7.06L36.06-7.06L35.16-7.06L35.16-0.82ZM45.60 0L45.60-7.03L43.22-7.03L43.22-7.87L48.98-7.87L48.98-7.03L46.61-7.03L46.61 0L45.60 0ZM50.40 0L50.40-7.87L51.40-7.87L51.40-4.57L55.06-4.57L55.06-7.87L56.06-7.87L56.06 0L55.06 0L55.06-3.71L51.40-3.71L51.40 0L50.40 0ZM58.22 0L58.22-7.87L62.76-7.87L62.76-7.03L59.22-7.03L59.22-4.56L62.21-4.56L62.21-3.71L59.22-3.71L59.22-0.85L62.88-0.85L62.88 0L58.22 0ZM66.97 0L66.97-7.87L67.97-7.87L67.97-4.57L71.63-4.57L71.63-7.87L72.64-7.87L72.64 0L71.63 0L71.63-3.71L67.97-3.71L67.97 0L66.97 0ZM77.70 0.14L77.70 0.14Q76.96 0.14 76.34-0.14Q75.72-0.43 75.28-0.97Q74.83-1.50 74.59-2.26Q74.34-3.02 74.34-3.97L74.34-3.97Q74.34-4.92 74.59-5.67Q74.83-6.42 75.28-6.94Q75.72-7.46 76.34-7.74Q76.96-8.02 77.70-8.02L77.70-8.02Q78.44-8.02 79.06-7.73Q79.68-7.45 80.13-6.93Q80.58-6.41 80.83-5.66Q81.07-4.91 81.07-3.97L81.07-3.97Q81.07-3.02 80.83-2.26Q80.58-1.50 80.13-0.97Q79.68-0.43 79.06-0.14Q78.44 0.14 77.70 0.14ZM77.70-0.73L77.70-0.73Q78.23-0.73 78.65-0.96Q79.08-1.19 79.39-1.61Q79.69-2.04 79.86-2.63Q80.03-3.23 80.03-3.97L80.03-3.97Q80.03-4.70 79.86-5.29Q79.69-5.88 79.39-6.29Q79.08-6.70 78.65-6.92Q78.23-7.14 77.70-7.14L77.70-7.14Q77.17-7.14 76.75-6.92Q76.32-6.70 76.01-6.29Q75.71-5.88 75.54-5.29Q75.37-4.70 75.37-3.97L75.37-3.97Q75.37-3.23 75.54-2.63Q75.71-2.04 76.01-1.61Q76.32-1.19 76.75-0.96Q77.17-0.73 77.70-0.73ZM83.76-7.07L83.76-4.14L85.08-4.14Q86.00-4.14 86.50-4.52Q86.99-4.90 86.99-5.66L86.99-5.66Q86.99-6.44 86.50-6.76Q86.00-7.07 85.08-7.07L85.08-7.07L83.76-7.07ZM88.21 0L87.08 0L85.19-3.32L83.76-3.32L83.76 0L82.76 0L82.76-7.87L85.22-7.87Q85.82-7.87 86.33-7.76Q86.84-7.64 87.21-7.38Q87.58-7.12 87.78-6.70Q87.98-6.28 87.98-5.66L87.98-5.66Q87.98-4.74 87.50-4.19Q87.02-3.64 86.22-3.43L86.22-3.43L88.21 0ZM89.74 0L89.74-7.87L90.73-7.87L90.73 0L89.74 0ZM92.35 0L92.35-0.60L96.49-7.03L92.72-7.03L92.72-7.87L97.74-7.87L97.74-7.28L93.59-0.85L97.78-0.85L97.78 0L92.35 0ZM102.02 0.14L102.02 0.14Q101.28 0.14 100.66-0.14Q100.04-0.43 99.60-0.97Q99.16-1.50 98.91-2.26Q98.66-3.02 98.66-3.97L98.66-3.97Q98.66-4.92 98.91-5.67Q99.16-6.42 99.60-6.94Q100.04-7.46 100.66-7.74Q101.28-8.02 102.02-8.02L102.02-8.02Q102.77-8.02 103.39-7.73Q104.00-7.45 104.45-6.93Q104.90-6.41 105.15-5.66Q105.40-4.91 105.40-3.97L105.40-3.97Q105.40-3.02 105.15-2.26Q104.90-1.50 104.45-0.97Q104.00-0.43 103.39-0.14Q102.77 0.14 102.02 0.14ZM102.02-0.73L102.02-0.73Q102.55-0.73 102.98-0.96Q103.40-1.19 103.71-1.61Q104.02-2.04 104.18-2.63Q104.35-3.23 104.35-3.97L104.35-3.97Q104.35-4.70 104.18-5.29Q104.02-5.88 103.71-6.29Q103.40-6.70 102.98-6.92Q102.55-7.14 102.02-7.14L102.02-7.14Q101.50-7.14 101.07-6.92Q100.64-6.70 100.34-6.29Q100.03-5.88 99.86-5.29Q99.70-4.70 99.70-3.97L99.70-3.97Q99.70-3.23 99.86-2.63Q100.03-2.04 100.34-1.61Q100.64-1.19 101.07-0.96Q101.50-0.73 102.02-0.73ZM107.09 0L107.09-7.87L108.12-7.87L110.96-2.93L111.82-1.30L111.86-1.30Q111.83-1.90 111.79-2.54Q111.74-3.18 111.74-3.80L111.74-3.80L111.74-7.87L112.69-7.87L112.69 0L111.66 0L108.80-4.96L107.95-6.58L107.90-6.58Q107.95-5.98 107.99-5.36Q108.04-4.74 108.04-4.12L108.04-4.12L108.04 0L107.09 0Z" transform="translate(-1.08, 8.016)"></path>
                        </g>
                    </g>
                </g>
            </g>
        </g>
    </g>
</svg>