<svg  version="1.0" width="100%" height="100%" color-interpolation-filters="sRGB" style="margin: auto;" viewBox="350.507 231.338 19.162 23.168" xmlns="http://www.w3.org/2000/svg">
<g transform="matrix(1, 0, 0, 1, 350.506653, 231.337952)">
    <g>
        <g class="imagesvg">
            <g>
                <rect fill="#ec7210" fill-opacity="0" stroke-width="2" x="0" y="0" width="19.161872793014492" height="23.16810077986953" class="image-rect"></rect>
                <svg x="0" y="0" width="19.161872793014492" height="23.16810077986953" class="image-svg-svg primary" style="overflow: visible;">
                    <svg xmlns="http://www.w3.org/2000/svg" viewBox="0.0021750926971435547 0 82.70782470703125 100">
                        <title>资源 33</title>
                        <path d="M.16 0h50S67.27 1 71 13.76s-4.4 20.13-4.4 20.13H54.52S60.23.67 31 7.05v33.22S16.27 44 3.51 58.05c0 0 .68-4.69 9.74-12.08V9.4s-.68-5-4.37-5.71H1.17S-.51 3 .16 0z" fill="#ec7210"></path>
                        <path d="M13.58 55.7V93s5.71-42.95 49-55.7c-.01-.05-30.88-1.06-49 18.4z" fill="#f0c244"></path>
                        <path d="M31.7 63.42S20 76.51 21 100h33.52s33.56-4.36 24.83-36.58C74 46.31 57.54 44.63 57.54 44.63a53.79 53.79 0 0 1 25.17-8.39s-26.18-1-38.59 13.09c0 0 16.78 3.69 18.45 24.83S46.8 94.3 45.46 94.3s-12.08.33-13.76-7.39z" fill="#ec7210"></path>
                    </svg>
                </svg>
            </g>
        </g>
    </g>
</g>
</svg>